<?xml version="1.0" standalone="no"?>
<!DOCTYPE svg PUBLIC "-//W3C//DTD SVG 20010904//EN"
 "http://www.w3.org/TR/2001/REC-SVG-20010904/DTD/svg10.dtd">
<svg version="1.0" xmlns="http://www.w3.org/2000/svg"
 width="500.000000pt" height="500.000000pt" viewBox="0 0 500.000000 500.000000"
 preserveAspectRatio="xMidYMid meet">

<g transform="translate(0.000000,500.000000) scale(0.100000,-0.100000)"
fill="#000000" stroke="none">
<path d="M3538 4264 c-31 -16 -58 -61 -58 -94 0 -38 31 -88 63 -103 18 -9 53
-18 80 -22 26 -4 47 -10 47 -14 0 -3 -98 -62 -217 -131 -120 -68 -298 -171
-397 -228 l-178 -104 -43 31 c-60 43 -198 107 -270 126 -175 45 -383 39 -525
-14 -70 -26 -193 -98 -247 -145 -63 -55 -160 -180 -199 -258 -81 -161 -99
-346 -51 -538 14 -58 29 -135 32 -171 8 -80 51 -210 96 -286 44 -74 159 -195
232 -245 83 -56 178 -99 277 -123 l85 -22 3 -271 2 -272 -142 -1 c-165 0 -203
-10 -235 -58 -27 -40 -29 -82 -7 -121 28 -47 63 -60 161 -60 48 0 118 -3 155
-6 l66 -7 4 -118 c4 -136 16 -164 86 -189 37 -13 45 -12 76 3 59 28 70 56 76
186 l5 116 160 5 c89 3 169 11 180 17 88 49 92 155 8 210 -22 15 -55 19 -185
22 l-158 3 2 271 3 270 83 22 c106 28 250 100 329 165 123 100 221 250 264
406 28 100 31 267 5 364 -70 270 -278 479 -563 567 -80 24 -102 27 -248 26
-131 0 -174 -4 -238 -21 -250 -68 -462 -271 -552 -530 -29 -84 -32 -48 -4 44
76 248 283 456 539 544 92 32 321 40 441 15 212 -42 414 -170 525 -331 21 -30
39 -52 41 -51 6 6 -34 111 -66 175 -18 35 -31 67 -29 72 4 10 735 430 749 430
13 0 11 -21 -6 -50 -8 -14 -14 -47 -15 -73 0 -40 5 -53 29 -77 32 -32 69 -45
104 -36 54 13 80 50 183 259 114 231 124 269 84 334 -33 54 -63 63 -298 84
-258 22 -308 23 -344 3z m-1003 -1019 c114 -24 228 -86 310 -169 39 -39 79
-90 89 -113 18 -41 18 -46 3 -108 -26 -107 -65 -173 -147 -255 -86 -87 -179
-141 -286 -166 -92 -22 -241 -22 -323 0 -129 35 -259 117 -328 207 -20 27 -39
47 -41 45 -9 -9 30 -133 59 -186 37 -70 114 -151 193 -201 164 -107 357 -124
564 -51 175 62 303 193 358 367 8 25 13 32 13 19 2 -42 -39 -151 -79 -213 -79
-122 -182 -199 -337 -254 -79 -28 -100 -31 -203 -31 -108 0 -120 2 -195 34
-169 71 -282 168 -343 293 -104 216 -62 450 112 615 159 150 370 211 581 167z
m-958 -417 c-3 -8 -6 -5 -6 6 -1 11 2 17 5 13 3 -3 4 -12 1 -19z"/>
</g>
</svg>
