<?xml version="1.0" standalone="no"?>
<!DOCTYPE svg PUBLIC "-//W3C//DTD SVG 20010904//EN"
 "http://www.w3.org/TR/2001/REC-SVG-20010904/DTD/svg10.dtd">
<svg version="1.0" xmlns="http://www.w3.org/2000/svg"
 width="500.000000pt" height="500.000000pt" viewBox="0 0 500.000000 500.000000"
 preserveAspectRatio="xMidYMid meet">

<g transform="translate(0.000000,500.000000) scale(0.100000,-0.100000)"
fill="#000000" stroke="none">
<path d="M1194 3589 c-64 -45 -164 -138 -164 -153 0 -14 592 -606 606 -606 34
0 194 177 194 214 0 32 -80 152 -175 261 -109 126 -275 294 -307 311 -48 25
-89 18 -154 -27z"/>
<path d="M944 3298 c-134 -266 -83 -711 131 -1166 364 -769 1102 -1347 1761
-1379 181 -9 362 25 463 88 l33 20 -78 72 c-44 40 -190 179 -325 309 l-247
238 -49 0 c-125 0 -282 68 -453 197 -158 118 -313 299 -443 517 -140 236 -192
414 -154 525 l16 44 -307 304 c-169 166 -308 303 -309 303 -2 0 -19 -32 -39
-72z"/>
<path d="M3081 3154 c0 -11 3 -14 6 -6 3 7 2 16 -1 19 -3 4 -6 -2 -5 -13z"/>
<path d="M2921 2714 c0 -11 3 -14 6 -6 3 7 2 16 -1 19 -3 4 -6 -2 -5 -13z"/>
<path d="M3001 1707 c-24 -13 -88 -64 -142 -113 l-100 -89 173 -169 c237 -232
450 -426 467 -426 20 0 126 115 161 175 44 74 40 109 -17 186 -58 77 -361 384
-422 428 -53 37 -63 38 -120 8z"/>
</g>
</svg>
