<?xml version="1.0" encoding="UTF-8"?>
<!DOCTYPE svg PUBLIC "-//W3C//DTD SVG 1.1//EN" "http://www.w3.org/Graphics/SVG/1.1/DTD/svg11.dtd">
<svg xmlns="http://www.w3.org/2000/svg" version="1.1" width="500px" height="500px" style="shape-rendering:geometricPrecision; text-rendering:geometricPrecision; image-rendering:optimizeQuality; fill-rule:evenodd; clip-rule:evenodd" xmlns:xlink="http://www.w3.org/1999/xlink">
<g><path style="opacity:0.987" fill="#9e4040" d="M 328.5,120.5 C 326.801,120.34 325.134,120.506 323.5,121C 304.376,129.061 286.043,138.394 268.5,149C 261.719,150.789 255.052,152.623 248.5,154.5C 234.825,157.168 221.158,160.001 207.5,163C 203.39,164.515 199.39,166.015 195.5,167.5C 180.517,171.158 166.184,176.158 152.5,182.5C 147.772,183.698 143.439,185.698 139.5,188.5C 133.464,156.406 145.13,133.239 174.5,119C 193.543,113.068 211.877,114.735 229.5,124C 236.952,129.117 244.118,134.617 251,140.5C 268.098,121.871 289.264,113.704 314.5,116C 319.62,116.43 324.287,117.93 328.5,120.5 Z"/></g>
<g><path style="opacity:0.953" fill="#e4dede" d="M 328.5,120.5 C 341.378,125.379 350.711,134.046 356.5,146.5C 354.696,147.162 352.696,147.495 350.5,147.5C 332.587,145.172 314.587,145.005 296.5,147C 289.177,147.777 281.843,148.444 274.5,149C 266.082,152.105 257.415,153.939 248.5,154.5C 255.052,152.623 261.719,150.789 268.5,149C 286.043,138.394 304.376,129.061 323.5,121C 325.134,120.506 326.801,120.34 328.5,120.5 Z"/></g>
<g><path style="opacity:0.016" fill="#984138" d="M 249.5,133.5 C 250.091,134.151 250.757,134.818 251.5,135.5C 251.043,136.298 250.376,136.631 249.5,136.5C 247.443,134.957 247.443,133.957 249.5,133.5 Z"/></g>
<g><path style="opacity:0.008" fill="#8b8b8b" d="M 249.5,133.5 C 250.873,133.343 252.207,133.51 253.5,134C 252.663,135.011 252.33,136.178 252.5,137.5C 251.209,137.737 250.209,137.404 249.5,136.5C 250.376,136.631 251.043,136.298 251.5,135.5C 250.757,134.818 250.091,134.151 249.5,133.5 Z"/></g>
<g><path style="opacity:0.99" fill="#f0ecec" d="M 356.5,146.5 C 362.256,155.932 364.59,166.266 363.5,177.5C 359.167,177.5 354.833,177.5 350.5,177.5C 333.341,176.503 316.008,176.17 298.5,176.5C 291.213,176.069 284.046,176.736 277,178.5C 276.228,178.355 275.561,178.022 275,177.5C 274.626,178.416 274.126,179.25 273.5,180C 259.124,182.815 244.79,185.815 230.5,189C 219.305,192.999 207.972,196.165 196.5,198.5C 189.683,200.99 183.016,203.657 176.5,206.5C 170.579,209.53 164.245,211.697 157.5,213C 155.242,213.876 153.242,215.043 151.5,216.5C 145.896,207.948 141.896,198.614 139.5,188.5C 143.439,185.698 147.772,183.698 152.5,182.5C 155.181,182.538 157.681,181.871 160,180.5C 164.251,181.957 167.084,180.623 168.5,176.5C 173.705,174.822 179.039,173.656 184.5,173C 188.183,171.033 191.85,169.2 195.5,167.5C 199.39,166.015 203.39,164.515 207.5,163C 221.158,160.001 234.825,157.168 248.5,154.5C 257.415,153.939 266.082,152.105 274.5,149C 281.843,148.444 289.177,147.777 296.5,147C 314.587,145.005 332.587,145.172 350.5,147.5C 352.696,147.495 354.696,147.162 356.5,146.5 Z"/></g>
<g><path style="opacity:0.993" fill="#9d3f3f" d="M 350.5,177.5 C 354.833,177.5 359.167,177.5 363.5,177.5C 358.681,206.969 344.681,231.136 321.5,250C 298.787,268.382 275.787,286.382 252.5,304C 251.167,304.667 249.833,304.667 248.5,304C 232.401,290.566 215.735,277.899 198.5,266C 193.639,261.968 188.972,257.801 184.5,253.5C 184.833,253.5 185.167,253.5 185.5,253.5C 194.943,245.229 204.276,236.729 213.5,228C 223.689,219.969 233.689,211.803 243.5,203.5C 248.095,201.231 252.095,198.231 255.5,194.5C 259.855,190.991 264.522,187.991 269.5,185.5C 272.659,185.519 275.326,184.352 277.5,182C 301.663,177.996 325.996,176.496 350.5,177.5 Z"/></g>
<g><path style="opacity:1" fill="#dbbebd" d="M 195.5,167.5 C 191.85,169.2 188.183,171.033 184.5,173C 179.039,173.656 173.705,174.822 168.5,176.5C 167.084,180.623 164.251,181.957 160,180.5C 157.681,181.871 155.181,182.538 152.5,182.5C 166.184,176.158 180.517,171.158 195.5,167.5 Z"/></g>
<g><path style="opacity:1" fill="#e1dede" d="M 298.5,176.5 C 293.034,177.724 287.367,178.557 281.5,179C 276.701,179.896 272.701,182.063 269.5,185.5C 264.522,187.991 259.855,190.991 255.5,194.5C 255.53,193.503 255.03,192.836 254,192.5C 226.377,201.706 199.877,213.539 174.5,228C 172.866,228.494 171.199,228.66 169.5,228.5C 178.872,218.127 188.872,208.461 199.5,199.5C 198.675,198.614 197.675,198.281 196.5,198.5C 207.972,196.165 219.305,192.999 230.5,189C 244.79,185.815 259.124,182.815 273.5,180C 274.126,179.25 274.626,178.416 275,177.5C 275.561,178.022 276.228,178.355 277,178.5C 284.046,176.736 291.213,176.069 298.5,176.5 Z"/></g>
<g><path style="opacity:1" fill="#b57271" d="M 298.5,176.5 C 316.008,176.17 333.341,176.503 350.5,177.5C 325.996,176.496 301.663,177.996 277.5,182C 275.326,184.352 272.659,185.519 269.5,185.5C 272.701,182.063 276.701,179.896 281.5,179C 287.367,178.557 293.034,177.724 298.5,176.5 Z"/></g>
<g><path style="opacity:0.982" fill="#eeeaea" d="M 255.5,194.5 C 252.095,198.231 248.095,201.231 243.5,203.5C 222.293,217.804 202.959,234.471 185.5,253.5C 185.167,253.5 184.833,253.5 184.5,253.5C 176.868,247.536 169.868,240.869 163.5,233.5C 165.5,231.833 167.5,230.167 169.5,228.5C 171.199,228.66 172.866,228.494 174.5,228C 199.877,213.539 226.377,201.706 254,192.5C 255.03,192.836 255.53,193.503 255.5,194.5 Z"/></g>
<g><path style="opacity:0.999" fill="#a04545" d="M 162.5,232.5 C 158.06,227.722 154.393,222.388 151.5,216.5C 153.242,215.043 155.242,213.876 157.5,213C 164.245,211.697 170.579,209.53 176.5,206.5C 181.321,205.759 185.988,204.426 190.5,202.5C 191.932,202.733 192.432,203.4 192,204.5C 181.995,213.672 172.162,223.006 162.5,232.5 Z"/></g>
<g><path style="opacity:0.969" fill="#ffe0b8" d="M 131.5,271.5 C 130.198,272.807 128.865,272.807 127.5,271.5C 126.749,272.376 126.249,273.376 126,274.5C 125.333,273.167 124.667,273.167 124,274.5C 123.125,272.487 121.791,272.487 120,274.5C 118.434,275.061 117.101,274.394 116,272.5C 115.333,275.167 114.667,275.167 114,272.5C 113,273.833 112,273.833 111,272.5C 109.333,274.167 107.667,275.833 106,277.5C 105.333,276.167 104.333,275.167 103,274.5C 99.9011,278.598 96.7344,278.931 93.5,275.5C 92.4826,278.028 91.3159,278.028 90,275.5C 89.6174,276.056 89.1174,276.389 88.5,276.5C 83.5522,254.658 79.8855,232.324 77.5,209.5C 77.7637,197.57 83.7637,190.57 95.5,188.5C 104.823,190.317 111.323,195.65 115,204.5C 120.405,226.876 125.905,249.209 131.5,271.5 Z"/></g>
<g><path style="opacity:0.969" fill="#ffe0b8" d="M 412.5,276.5 C 411.883,276.389 411.383,276.056 411,275.5C 406.556,278.008 406.389,277.508 410.5,274C 407.101,274.284 404.268,275.784 402,278.5C 399.486,277.911 397.486,276.578 396,274.5C 394.667,275.167 393.667,276.167 393,277.5C 391.333,275.833 389.667,274.167 388,272.5C 387,273.833 386,273.833 385,272.5C 384.333,275.167 383.667,275.167 383,272.5C 382.333,273.167 381.667,273.833 381,274.5C 379.34,274.676 377.674,274.009 376,272.5C 375.683,274.301 375.016,274.634 374,273.5C 372.512,275.16 370.679,276.16 368.5,276.5C 374.021,252.434 379.854,228.434 386,204.5C 391.933,190.437 401.766,186.27 415.5,192C 421.011,196.522 423.677,202.356 423.5,209.5C 421.114,232.324 417.448,254.658 412.5,276.5 Z"/></g>
<g><path style="opacity:1" fill="#c49696" d="M 196.5,198.5 C 197.675,198.281 198.675,198.614 199.5,199.5C 188.872,208.461 178.872,218.127 169.5,228.5C 167.5,230.167 165.5,231.833 163.5,233.5C 162.833,233.5 162.5,233.167 162.5,232.5C 172.162,223.006 181.995,213.672 192,204.5C 192.432,203.4 191.932,202.733 190.5,202.5C 185.988,204.426 181.321,205.759 176.5,206.5C 183.016,203.657 189.683,200.99 196.5,198.5 Z"/></g>
<g><path style="opacity:1" fill="#c08787" d="M 243.5,203.5 C 233.689,211.803 223.689,219.969 213.5,228C 204.276,236.729 194.943,245.229 185.5,253.5C 202.959,234.471 222.293,217.804 243.5,203.5 Z"/></g>
<g><path style="opacity:0.977" fill="#ffe1bd" d="M 88.5,276.5 C 89.1174,276.389 89.6174,276.056 90,275.5C 91.3159,278.028 92.4826,278.028 93.5,275.5C 96.7344,278.931 99.9011,278.598 103,274.5C 104.333,275.167 105.333,276.167 106,277.5C 107.667,275.833 109.333,274.167 111,272.5C 112,273.833 113,273.833 114,272.5C 114.667,275.167 115.333,275.167 116,272.5C 117.101,274.394 118.434,275.061 120,274.5C 121.791,272.487 123.125,272.487 124,274.5C 124.667,273.167 125.333,273.167 126,274.5C 126.249,273.376 126.749,272.376 127.5,271.5C 128.865,272.807 130.198,272.807 131.5,271.5C 132.628,276.724 134.628,281.558 137.5,286C 145.474,291.325 153.807,296.158 162.5,300.5C 162.833,300.333 163.167,300.167 163.5,300C 159.895,296.64 156.395,293.14 153,289.5C 150.455,283.588 150.122,277.588 152,271.5C 155.322,266.604 159.989,263.937 166,263.5C 169.963,264.6 173.797,266.1 177.5,268C 197.346,282.846 214.513,300.346 229,320.5C 237.121,339.745 240.788,359.412 240,379.5C 237.762,387.072 233.262,392.905 226.5,397C 212.186,407.646 198.186,407.313 184.5,396C 164.412,378.575 143.745,361.908 122.5,346C 115.003,339.363 108.17,332.196 102,324.5C 100.472,321.583 99.1392,318.583 98,315.5C 94.6364,302.507 91.4698,289.507 88.5,276.5 Z"/></g>
<g><path style="opacity:0.977" fill="#ffe1bd" d="M 368.5,276.5 C 370.679,276.16 372.512,275.16 374,273.5C 375.016,274.634 375.683,274.301 376,272.5C 377.674,274.009 379.34,274.676 381,274.5C 381.667,273.833 382.333,273.167 383,272.5C 383.667,275.167 384.333,275.167 385,272.5C 386,273.833 387,273.833 388,272.5C 389.667,274.167 391.333,275.833 393,277.5C 393.667,276.167 394.667,275.167 396,274.5C 397.486,276.578 399.486,277.911 402,278.5C 404.268,275.784 407.101,274.284 410.5,274C 406.389,277.508 406.556,278.008 411,275.5C 411.383,276.056 411.883,276.389 412.5,276.5C 409.53,289.507 406.364,302.507 403,315.5C 400.555,322.271 396.889,328.271 392,333.5C 368.444,353.691 344.61,373.524 320.5,393C 313.672,398.747 306.005,402.914 297.5,405.5C 289.111,405.418 281.444,402.584 274.5,397C 260.93,387.459 256.93,374.959 262.5,359.5C 262.291,358.914 261.957,358.414 261.5,358C 263.517,345.099 267.017,332.599 272,320.5C 287.236,298.93 305.736,280.763 327.5,266C 332.723,263.126 338.056,263.126 343.5,266C 348.278,268.716 350.611,272.883 350.5,278.5C 349.985,282.242 349.152,285.909 348,289.5C 344.605,293.14 341.105,296.64 337.5,300C 337.833,300.167 338.167,300.333 338.5,300.5C 347.947,296.033 356.781,290.7 365,284.5C 366.093,281.691 367.26,279.024 368.5,276.5 Z"/></g>
</svg>
