<?xml version="1.0" encoding="UTF-8"?>
<!DOCTYPE svg PUBLIC "-//W3C//DTD SVG 1.1//EN" "http://www.w3.org/Graphics/SVG/1.1/DTD/svg11.dtd">
<svg xmlns="http://www.w3.org/2000/svg" version="1.1" width="500px" height="500px" style="shape-rendering:geometricPrecision; text-rendering:geometricPrecision; image-rendering:optimizeQuality; fill-rule:evenodd; clip-rule:evenodd" xmlns:xlink="http://www.w3.org/1999/xlink">
<g><path style="opacity:0.989" fill="#ffe1bd" d="M 250.5,60.5 C 262.816,60.9812 269.982,67.3146 272,79.5C 272.252,108.652 271.418,138.152 269.5,168C 270.209,181.824 270.709,195.657 271,209.5C 271.29,211.044 271.956,212.377 273,213.5C 274.057,211.781 274.89,209.947 275.5,208C 275.167,207.667 274.833,207.333 274.5,207C 275.625,197.231 276.625,187.397 277.5,177.5C 276.584,147.29 276.751,117.624 278,88.5C 280.363,72.2451 289.53,65.7451 305.5,69C 314.602,73.6964 319.268,81.1964 319.5,91.5C 318.686,113.294 318.02,135.128 317.5,157C 317.422,164.449 318.089,171.782 319.5,179C 318.532,188.865 318.198,198.698 318.5,208.5C 319.036,210.942 319.869,213.275 321,215.5C 322.682,214.135 322.849,212.635 321.5,211C 322.786,202.559 323.786,194.059 324.5,185.5C 324.069,184.707 323.735,183.873 323.5,183C 324.087,179.614 324.754,176.28 325.5,173C 323.964,162.091 325.131,151.257 329,140.5C 336.928,133.766 345.094,133.266 353.5,139C 355.986,142.137 357.819,145.637 359,149.5C 361.58,169.499 362.247,189.499 361,209.5C 360.517,255.503 359.85,301.503 359,347.5C 358.036,371.6 347.203,389.767 326.5,402C 296.653,421.863 265.986,424.196 234.5,409C 230.167,406.667 225.833,404.333 221.5,402C 213.788,395.286 205.788,388.953 197.5,383C 183.631,369.798 170.464,355.965 158,341.5C 156.139,339.112 154.806,336.446 154,333.5C 141.534,322.126 131.201,309.126 123,294.5C 119.875,286.421 118.875,278.087 120,269.5C 126.5,256.322 136.667,252.489 150.5,258C 152.833,259.667 155.167,261.333 157.5,263C 165.599,273.102 174.432,282.602 184,291.5C 185.263,276.375 186.096,261.208 186.5,246C 185.723,213.981 185.723,181.981 186.5,150C 186.806,141.05 187.973,132.217 190,123.5C 193.783,116.384 199.45,111.384 207,108.5C 213.686,109.512 218.353,113.178 221,119.5C 222.408,123.057 223.408,126.724 224,130.5C 225.334,156.881 226.001,183.214 226,209.5C 226.333,210.5 226.667,211.5 227,212.5C 227.667,213.833 228.333,213.833 229,212.5C 230.23,189.983 231.397,167.483 232.5,145C 231.647,142.867 231.314,140.867 231.5,139C 232.327,119.24 232.827,99.4065 233,79.5C 234.558,69.1124 240.391,62.7791 250.5,60.5 Z"/></g>
</svg>
